<?xml version="1.0" encoding="UTF-8"?>
<svg width="190px" height="79px" viewBox="0 0 190 79" version="1.1" xmlns="http://www.w3.org/2000/svg" xmlns:xlink="http://www.w3.org/1999/xlink">
    <!-- Generator: Sketch 48.1 (47250) - http://www.bohemiancoding.com/sketch -->
    <title>logo</title>
    <desc>Created with Sketch.</desc>
    <defs>
        <linearGradient x1="49.9798659%" y1="30.506411%" x2="49.9798659%" y2="102.12697%" id="linearGradient-1">
            <stop stop-color="#495660" offset="0%"></stop>
            <stop stop-color="#748797" offset="87.487533%"></stop>
            <stop stop-color="#748797" offset="100%"></stop>
        </linearGradient>
        <linearGradient x1="50.0124426%" y1="30.506411%" x2="50.0124426%" y2="102.12697%" id="linearGradient-2">
            <stop stop-color="#495660" offset="0%"></stop>
            <stop stop-color="#748797" offset="87.487533%"></stop>
            <stop stop-color="#748797" offset="100%"></stop>
        </linearGradient>
        <linearGradient x1="50.0120125%" y1="30.6663092%" x2="50.0120125%" y2="104.148683%" id="linearGradient-3">
            <stop stop-color="#495660" offset="0%"></stop>
            <stop stop-color="#748797" offset="87.487533%"></stop>
            <stop stop-color="#748797" offset="100%"></stop>
        </linearGradient>
        <linearGradient x1="2.08421027%" y1="100.656052%" x2="98.5867619%" y2="-1.36664903%" id="linearGradient-4">
            <stop stop-color="#F6D576" offset="0%"></stop>
            <stop stop-color="#F3A839" offset="31%"></stop>
            <stop stop-color="#EF7F24" offset="63%"></stop>
            <stop stop-color="#E8502B" offset="100%"></stop>
        </linearGradient>
        <linearGradient x1="49.960992%" y1="-0.536653327%" x2="49.960992%" y2="99.438546%" id="linearGradient-5">
            <stop stop-color="#454345" offset="0%"></stop>
            <stop stop-color="#454345" offset="34%"></stop>
            <stop stop-color="#8F9198" offset="91%"></stop>
            <stop stop-color="#909298" offset="100%"></stop>
        </linearGradient>
        <linearGradient x1="49.869799%" y1="-20.8447549%" x2="49.869799%" y2="367.428126%" id="linearGradient-6">
            <stop stop-color="#495660" offset="0%"></stop>
            <stop stop-color="#748797" offset="87.487533%"></stop>
            <stop stop-color="#748797" offset="100%"></stop>
        </linearGradient>
        <linearGradient x1="53.5173013%" y1="-18.4984749%" x2="53.5173013%" y2="235.914245%" id="linearGradient-7">
            <stop stop-color="#495660" offset="0%"></stop>
            <stop stop-color="#748797" offset="87.487533%"></stop>
            <stop stop-color="#748797" offset="100%"></stop>
        </linearGradient>
        <linearGradient x1="49.8938216%" y1="46.9641946%" x2="49.8938216%" y2="224.381587%" id="linearGradient-8">
            <stop stop-color="#495660" offset="0%"></stop>
            <stop stop-color="#748797" offset="87.487533%"></stop>
            <stop stop-color="#748797" offset="100%"></stop>
        </linearGradient>
        <linearGradient x1="49.4275649%" y1="-40.000356%" x2="49.4275649%" y2="338.416824%" id="linearGradient-9">
            <stop stop-color="#495660" offset="0%"></stop>
            <stop stop-color="#748797" offset="87.487533%"></stop>
            <stop stop-color="#748797" offset="100%"></stop>
        </linearGradient>
        <linearGradient x1="49.790247%" y1="-78.4015197%" x2="49.790247%" y2="143.634175%" id="linearGradient-10">
            <stop stop-color="#495660" offset="0%"></stop>
            <stop stop-color="#748797" offset="87.487533%"></stop>
            <stop stop-color="#748797" offset="100%"></stop>
        </linearGradient>
        <linearGradient x1="49.8037686%" y1="73.3485998%" x2="49.8037686%" y2="257.359088%" id="linearGradient-11">
            <stop stop-color="#495660" offset="0%"></stop>
            <stop stop-color="#748797" offset="87.487533%"></stop>
            <stop stop-color="#748797" offset="100%"></stop>
        </linearGradient>
        <linearGradient x1="35.0209667%" y1="-114.266884%" x2="35.0209667%" y2="200.853932%" id="linearGradient-12">
            <stop stop-color="#495660" offset="0%"></stop>
            <stop stop-color="#748797" offset="87.487533%"></stop>
            <stop stop-color="#748797" offset="100%"></stop>
        </linearGradient>
        <linearGradient x1="50.0120327%" y1="21.6641312%" x2="50.0120327%" y2="191.653244%" id="linearGradient-13">
            <stop stop-color="#495660" offset="0%"></stop>
            <stop stop-color="#748797" offset="87.487533%"></stop>
            <stop stop-color="#748797" offset="100%"></stop>
        </linearGradient>
        <linearGradient x1="48.7053155%" y1="-119.182127%" x2="48.7053155%" y2="409.197562%" id="linearGradient-14">
            <stop stop-color="#495660" offset="0%"></stop>
            <stop stop-color="#748797" offset="87.487533%"></stop>
            <stop stop-color="#748797" offset="100%"></stop>
        </linearGradient>
        <linearGradient x1="49.8318829%" y1="108.634576%" x2="49.8318829%" y2="384.551014%" id="linearGradient-15">
            <stop stop-color="#495660" offset="0%"></stop>
            <stop stop-color="#748797" offset="87.487533%"></stop>
            <stop stop-color="#748797" offset="100%"></stop>
        </linearGradient>
    </defs>
    <g id="header" stroke="none" stroke-width="1" fill="none" fill-rule="evenodd" transform="translate(-250.000000, -15.000000)">
        <g id="logo" transform="translate(250.000000, 15.000000)" fill-rule="nonzero">
            <g id="g3344" transform="translate(95.000000, 39.676471) scale(-1, 1) rotate(-180.000000) translate(-95.000000, -39.676471) ">
                <g id="g3346" transform="translate(82.786760, 20.171751)" fill="url(#linearGradient-1)">
                    <g id="g3348">
                        <g id="g3354">
                            <g id="g3356">
                                <path d="M13.7139847,41.7462922 C11.098351,40.5388578 8.78741506,38.8166525 6.78146407,36.5791032 C4.77522591,34.3372571 3.15754203,31.6342082 1.92582782,28.4679514 C0.694400785,25.3016946 0.0806975271,21.7596006 0.0806975271,17.8419558 C0.0806975271,15.0008326 0.478441566,12.4676553 1.27823734,10.2513042 C2.0740126,8.03065618 3.18712155,6.16894417 4.61440521,4.66158479 C6.03651964,3.15479833 7.75069594,2.00637497 9.76095462,1.20829378 C11.7671928,0.410212586 13.9804876,0.00973968432 16.3971057,0.00973968432 C19.1609242,0.00973968432 21.8609888,0.617324109 24.4978738,1.82046158 C26.0216499,2.51713547 27.4354361,3.39513937 28.751294,4.43814497 C28.0657958,5.62008431 27.4690362,6.89942049 26.9822664,8.25466892 C26.1569116,10.5469323 25.6618136,13.0924274 25.5009929,15.8284193 C25.0693617,14.9415351 24.5823047,14.1225423 24.0406836,13.384045 C23.007985,11.9652022 21.8609888,10.863472 20.6085976,10.0905994 C19.3556321,9.31428928 18.1239179,8.92556129 16.9177627,8.92556129 C14.9752785,8.92556129 13.4515024,9.75744492 12.3510293,11.4163423 C11.2505563,13.0715157 10.7003198,15.427087 10.7003198,18.4879261 C10.7003198,20.8984979 11.0262689,23.0939374 11.6741465,25.0779683 C12.3174293,27.0579889 13.1637482,28.7592826 14.2007545,30.1818494 C15.2334531,31.6004058 16.3758544,32.6984119 17.6328404,33.4761544 C18.8814983,34.252751 20.1134996,34.6411925 21.3236754,34.6411925 C23.2664468,34.6411925 24.785628,33.8095953 25.886101,32.1492656 C26.4489735,31.313658 26.8593534,30.2875536 27.1387794,29.0844161 C27.3082155,29.5994736 27.4859798,30.1062236 27.6806877,30.6043798 C29.0097559,34.0207173 30.757245,37.0474674 32.8863961,39.6270515 C31.6167742,40.7794853 30.1521571,41.695875 28.4804835,42.3627569 C26.4742453,43.1565412 24.2609505,43.5532901 21.8397375,43.5532901 C19.0339907,43.5532901 16.3253108,42.9494297 13.7139847,41.7462922" id="path3366"></path>
                            </g>
                        </g>
                    </g>
                </g>
                <g id="g3368" transform="translate(114.089360, 20.171751)" fill="url(#linearGradient-2)">
                    <g id="g3370">
                        <g id="g3376">
                            <g id="g3378">
                                <path d="M13.6838308,41.7462922 C11.0681971,40.5388578 8.76156887,38.8166525 6.75159737,36.5791032 C4.74507203,34.3372571 3.12882405,31.6342082 1.89682266,28.4679514 C0.665108444,25.3016946 0.0514051863,21.7596006 0.0514051863,17.8419558 C0.0514051863,15.0008326 0.449436405,12.4676553 1.24951936,10.2513042 C2.04902796,8.03065618 3.15811639,6.16894417 4.58453851,4.66158479 C6.01067346,3.15479833 7.72484975,2.00637497 9.73539561,1.20829378 C11.7413466,0.410212586 13.9549286,0.00973968432 16.3715467,0.00973968432 C19.1307703,0.00973968432 21.8314093,0.617324109 24.4680071,1.82046158 C27.1002973,3.02359906 29.4198486,4.75038779 31.4298201,6.98793703 C33.4363455,9.22548628 35.0571883,11.9313997 36.2845948,15.097943 C37.5157347,18.2599029 38.1340328,21.8019969 38.1340328,25.7239386 C38.1340328,28.5653483 37.7319811,31.0939422 36.9362058,33.315736 C36.1321024,35.5320871 35.0233011,37.3937992 33.5971662,38.9054555 C32.1747646,40.4122419 30.4565677,41.5606653 28.4506168,42.3627569 C26.4443786,43.1565412 24.2307966,43.5532901 21.8141785,43.5532901 C19.0038369,43.5532901 16.2954441,42.9494297 13.6838308,41.7462922 M12.3251832,11.4163423 C11.2206896,13.0715157 10.6747608,15.427087 10.6747608,18.4879261 C10.6747608,20.8984979 10.9964022,23.0939374 11.6439926,25.0779683 C12.2915831,27.0579889 13.1338815,28.7592826 14.1706006,30.1818494 C15.2076069,31.6004058 16.3500082,32.6984119 17.6029737,33.4761544 C18.8556521,34.252751 20.0833458,34.6411925 21.2938087,34.6411925 C23.2362929,34.6411925 24.7557613,33.8095953 25.8602549,32.1492656 C26.9607279,30.4943787 27.5109644,28.1345105 27.5109644,25.0779683 C27.5109644,22.6630996 27.189323,20.4679466 26.5374249,18.4879261 C25.8898344,16.5079055 25.0521309,14.8063254 24.0148374,13.384045 C22.9781183,11.9652022 21.8314093,10.863472 20.5827515,10.0905994 C19.3257654,9.31428928 18.0980717,8.92556129 16.8922037,8.92556129 C14.9491451,8.92556129 13.4256562,9.75744492 12.3251832,11.4163423" id="path3388"></path>
                            </g>
                        </g>
                    </g>
                </g>
                <g id="g3390" transform="translate(147.402218, 20.171751)" fill="url(#linearGradient-3)">
                    <g id="g3392">
                        <g id="g3398">
                            <g id="g3400">
                                <path d="M9.28624639,42.991826 L16.3882031,22.3339555 L9.69260582,13.3459457 L0.220266916,0.836753467 C0.220266916,0.836753467 9.28624639,-2.01267712 14.4029291,4.96580669 C17.3022965,8.92155083 19.6468325,11.973796 19.8415404,12.2230174 L23.7942833,0.815841792 L35.1918757,0.815841792 L27.6927492,22.6547922 L32.589165,29.1606148 L42.0569091,41.6365775 C42.0569091,41.6365775 32.9915039,44.4650964 27.8745341,37.4866126 C26.558389,35.6799012 25.3476389,34.0628271 24.403966,32.8121371 L24.3830019,32.8247414 L24.2598018,32.8121371 L20.8147927,42.991826 L9.28624639,42.991826 Z" id="path3410"></path>
                            </g>
                        </g>
                    </g>
                </g>
                <g id="g3412" transform="translate(108.418794, -0.000000)" fill="#F28E20">
                    <g id="g3414-Clipped">
                        <g id="g3414" transform="translate(0.214149, 0.119460)">
                            <g id="g3420" transform="translate(0.060021, 4.856694)">
                                <path d="M7.4666751,6.58860998 C7.4965418,6.73642401 7.51779311,6.88395158 7.54306493,7.03606253 C7.56833676,7.18387657 7.57264445,7.34830535 7.57264445,7.5256249 C7.57264445,8.04927616 7.44571098,8.5050361 7.19184402,8.90636838 C6.93768989,9.30311729 6.48509451,9.50134851 5.83348351,9.50134851 C5.17699046,9.50134851 4.56357439,9.24811672 3.98806604,8.72904884 C3.41227052,8.21800187 2.99729569,7.50442676 2.73481335,6.58860998 L7.4666751,6.58860998 Z M0.271959282,4.62950112 C0.271959282,5.63440738 0.441108191,6.54220325 0.784000886,7.36090965 C1.12689358,8.18018898 1.57546845,8.88517025 2.13834088,9.471843 C2.69719279,10.0585157 3.32324478,10.5102652 4.02166608,10.8313883 C4.72008738,11.1479281 5.41420099,11.3086329 6.11262229,11.3086329 C6.73896146,11.3086329 7.26794667,11.2069391 7.69555741,11.004411 C8.12718867,10.8015964 8.47410188,10.5191455 8.74491244,10.1685169 C9.01170249,9.81387779 9.2064104,9.39593075 9.32903618,8.91467576 C9.45166196,8.43771769 9.51541588,7.92237381 9.51541588,7.36978995 C9.51541588,6.90514972 9.45625684,6.46199408 9.34167209,6.02256244 C9.22335401,5.58800065 9.13030775,5.28377874 9.05822562,5.11104258 L2.54039261,5.11104258 C2.48123357,4.5452815 2.50679258,4.05972959 2.62913118,3.65438685 C2.74371592,3.24474718 2.92148022,2.91130623 3.15840357,2.64976706 C3.39963461,2.39223834 3.695717,2.20202804 4.04291739,2.07541214 C4.3898306,1.95309317 4.77091821,1.89379568 5.17699046,1.89379568 C5.55377038,1.89379568 5.93916568,1.97830176 6.33260203,2.15161085 C6.72632555,2.32463348 7.06491055,2.52315116 7.35668523,2.7382836 L8.22856314,1.23951806 C7.79262419,0.935582617 7.26794667,0.669746527 6.64993572,0.446020249 C6.03221194,0.22200751 5.33350346,0.107995911 4.5675949,0.107995911 C3.92431213,0.107995911 3.34449609,0.209403213 2.81953139,0.416228274 C2.29916157,0.614745957 1.84656619,0.910374022 1.4694991,1.29451863 C1.09300636,1.67837678 0.796636798,2.14731393 0.584985276,2.70448117 C0.377641452,3.26594532 0.271959282,3.9079051 0.271959282,4.62950112 Z" id="path3422"></path>
                            </g>
                            <g id="g3424" transform="translate(12.788462, 5.017828)">
                                <path d="M2.29743849,10.8855295 L4.19339961,10.8855295 L4.08743026,9.38676399 L4.1721483,9.38676399 C4.73932843,9.86400852 5.32345217,10.2776586 5.92423233,10.6280008 C6.52960738,10.9743325 7.17289016,11.1473552 7.85436785,11.1473552 C8.76013297,11.1473552 9.40341575,10.9153215 9.79685209,10.4506813 C10.1902884,9.9863275 10.3852835,9.31915912 10.3852835,8.4494626 C10.3852835,8.20482465 10.3726476,7.96419716 10.3513963,7.73187704 C10.330145,7.49984338 10.2836219,7.23801775 10.2075192,6.95098353 L8.85748693,0.204533371 L6.52558686,0.204533371 L7.83311654,6.64676162 C7.87561915,6.8919725 7.91754741,7.10280802 7.95143462,7.27583064 C7.98962954,7.44913973 8.01088085,7.61356852 8.01088085,7.77828377 C8.01088085,8.6900901 7.55799828,9.14613649 6.65682803,9.14613649 C6.27976094,9.14613649 5.87368869,9.01522368 5.44607795,8.75368451 C5.01875439,8.49586934 4.51906152,8.07391184 3.95216857,7.49554646 L2.51741823,0.204533371 L0.159959155,0.204533371 L2.29743849,10.8855295 Z" id="path3426"></path>
                            </g>
                            <g id="g3428" transform="translate(26.799993, 4.856694)">
                                <path d="M7.4666751,6.58860998 C7.49625462,6.73642401 7.52152645,6.88395158 7.54277775,7.03606253 C7.56402906,7.18387657 7.57666497,7.34830535 7.57666497,7.5256249 C7.57666497,8.04927616 7.44944431,8.5050361 7.19155684,8.90636838 C6.94199759,9.30311729 6.48480733,9.50134851 5.83319633,9.50134851 C5.17670328,9.50134851 4.56328721,9.24811672 3.98777886,8.72904884 C3.41227052,8.21800187 2.99729569,7.50442676 2.73481335,6.58860998 L7.4666751,6.58860998 Z M0.271672102,4.62950112 C0.271672102,5.63440738 0.441108191,6.54220325 0.783713706,7.36090965 C1.1266064,8.18018898 1.57518127,8.88517025 2.1380537,9.471843 C2.69259791,10.0585157 3.3229576,10.5102652 4.0213789,10.8313883 C4.7198002,11.1479281 5.41420099,11.3086329 6.11664281,11.3086329 C6.7426948,11.3086329 7.26794667,11.2069391 7.69527023,11.004411 C8.12259379,10.8015964 8.4738147,10.5191455 8.74060475,10.1685169 C9.01141531,9.81387779 9.20612322,9.39593075 9.328749,8.91467576 C9.45596966,8.43771769 9.5151287,7.92237381 9.5151287,7.36978995 C9.5151287,6.90514972 9.45999018,6.46199408 9.34138491,6.02256244 C9.22737453,5.58800065 9.13002057,5.28377874 9.05793844,5.11104258 L2.54010543,5.11104258 C2.48094639,4.5452815 2.51052591,4.05972959 2.62913118,3.65438685 C2.74342874,3.24474718 2.92119304,2.91130623 3.16242409,2.64976706 C3.39934743,2.39223834 3.70002469,2.20202804 4.04263021,2.07541214 C4.39385112,1.95309317 4.77063103,1.89379568 5.17670328,1.89379568 C5.55807807,1.89379568 5.9388785,1.97830176 6.33231485,2.15161085 C6.72603837,2.32463348 7.06864388,2.52315116 7.35639806,2.7382836 L8.23258366,1.23951806 C7.79664471,0.935582617 7.26794667,0.669746527 6.64964854,0.446020249 C6.03192476,0.22200751 5.33781116,0.107995911 4.56730772,0.107995911 C3.92833264,0.107995911 3.3485166,0.209403213 2.82383909,0.416228274 C2.29887439,0.614745957 1.85029953,0.910374022 1.46921192,1.29451863 C1.09300636,1.67837678 0.800657315,2.14731393 0.589292973,2.70448117 C0.377354273,3.26594532 0.271672102,3.9079051 0.271672102,4.62950112 Z" id="path3430"></path>
                            </g>
                            <g id="g3432" transform="translate(39.528176, 5.017828)">
                                <path d="M2.29743849,10.8855295 L4.19339961,10.8855295 L3.9986917,8.816706 L4.08743026,8.816706 C4.5064256,9.48817129 5.00181078,10.0413281 5.56899091,10.4844837 C6.13588386,10.9236289 6.74527942,11.1473552 7.40148529,11.1473552 C7.82048063,11.1473552 8.18002975,11.0797503 8.46778393,10.9528479 L7.68521894,8.90980592 C7.54967007,8.98170771 7.40148529,9.02811444 7.22372098,9.04902611 C7.05026438,9.07022425 6.86819238,9.07853163 6.67779216,9.07853163 C6.16977107,9.07853163 5.67036538,8.88860778 5.17526739,8.49586934 C4.68016939,8.10341735 4.21465092,7.49554646 3.77871196,6.66795976 L2.51741823,0.204533371 L0.164266852,0.204533371 L2.29743849,10.8855295 Z" id="path3434"></path>
                            </g>
                            <g id="g3436" transform="translate(48.688752, 0.218198)">
                                <path d="M5.16923661,7.16153258 C5.59253965,7.16153258 6.05375043,7.28814848 6.55315612,7.54138027 C7.05284899,7.79461207 7.51377259,8.20425173 7.93736281,8.76972634 L8.7454868,12.7297674 C8.50023524,13.1944076 8.22080929,13.5235517 7.91582433,13.7306632 C7.61141373,13.9288944 7.28977234,14.0343122 6.95520786,14.0343122 C6.5192689,14.0343122 6.10458126,13.9076963 5.70655004,13.6501676 C5.30478548,13.3969358 4.94896969,13.054901 4.6359437,12.6203392 C4.3229177,12.1852045 4.07307127,11.6787409 3.89530697,11.1086829 C3.71323496,10.534328 3.61990153,9.930754 3.61990153,9.28936715 C3.61990153,8.5671982 3.76406579,8.0312291 4.04779945,7.68060047 C4.33124592,7.33455521 4.70371813,7.16153258 5.16923661,7.16153258 Z M11.6658183,15.6851887 L9.48612354,4.85637848 C9.17711806,3.34930556 8.5677225,2.20517911 7.65334198,1.42829606 C6.73953582,0.655709923 5.56698065,0.267554857 4.1451534,0.267554857 C3.45936801,0.267554857 2.78650571,0.398467673 2.12599215,0.655709923 C1.46576576,0.917535555 0.852349681,1.28076849 0.285169553,1.74512226 L1.33050407,3.31149267 C1.74088402,2.97776525 2.18141785,2.6990384 2.66359275,2.47559858 C3.13772662,2.24728893 3.65809644,2.13757425 4.20833296,2.13757425 C5.02105183,2.13757425 5.6772577,2.37390482 6.17206851,2.84255551 C6.66745369,3.31550313 7.03131051,3.97837458 7.25990564,4.8354668 L7.78458315,6.81520087 L7.7170959,6.81520087 C7.20936199,6.33394588 6.6757819,5.95008773 6.11721717,5.66276705 C5.55836525,5.36713898 4.95758509,5.22362187 4.31832283,5.22362187 C3.4168654,5.22362187 2.67220815,5.54044807 2.08377671,6.16923063 C1.49563246,6.80259657 1.19926289,7.73989796 1.19926289,8.98944216 C1.19926289,9.96054598 1.35606307,10.8680554 1.66908907,11.7082464 C1.98211506,12.5484374 2.39708989,13.2829242 2.9217674,13.9119932 C3.4467321,14.5450727 4.04779945,15.0435153 4.72066174,15.4064618 C5.39783174,15.7651114 6.10027356,15.9470143 6.82396668,15.9470143 C7.34893138,15.9470143 7.82277807,15.8161015 8.25469651,15.5459685 C8.68202007,15.275549 9.01227685,14.9083056 9.2448925,14.4482488 L9.31266693,14.4482488 L9.76985719,15.6851887 L11.6658183,15.6851887 Z" id="path3438"></path>
                            </g>
                            <g id="g3440" transform="translate(61.695700, 0.696846)">
                                <path d="M1.72307887,2.00522912 C2.18859734,2.00522912 2.63315169,2.18254867 3.05645474,2.54119822 C3.47545008,2.89182686 3.83069151,3.37709231 4.12275338,3.98524965 L4.44870246,4.63924081 L2.59495678,15.2065118 L4.92685685,15.2065118 L5.60431402,9.8153101 C5.66347307,9.33405511 5.71401671,8.81069031 5.76082702,8.2363354 C5.79873476,7.66226694 5.83692967,7.12601138 5.86650919,6.61926134 L5.95524775,6.61926134 C6.20107367,7.12601138 6.45063293,7.65797002 6.70449988,8.21542372 C6.95836684,8.77259095 7.21223379,9.30426313 7.45805971,9.8153101 L10.1159089,15.2065118 L12.3843422,15.2065118 L6.36591488,3.96405152 C6.03594528,3.38539968 5.69736028,2.85802442 5.35446759,2.38507681 C5.01157489,1.91642612 4.65173859,1.51538029 4.27524586,1.18193934 C3.89846594,0.848498381 3.48808599,0.590969669 3.04381882,0.405056283 C2.59926448,0.227736736 2.11220751,0.134923274 1.57087357,0.134923274 C1.39712978,0.134923274 1.17715005,0.173022627 0.906052306,0.240627495 C0.635241743,0.316253279 0.402338916,0.409353203 0.199302789,0.527661721 L0.939939524,2.22036156 C1.18547826,2.08114137 1.44796061,2.00522912 1.72307887,2.00522912" id="path3442"></path>
                            </g>
                        </g>
                    </g>
                </g>
                <g id="g3444" transform="translate(0.653334, 36.213584)" fill="url(#linearGradient-4)">
                    <g id="g3446">
                        <g id="g3452">
                            <g id="g3454">
                                <path d="M33.8217408,42.3003084 C33.2801197,42.2496047 32.7890422,42.1946041 32.3022724,42.144187 C32.8441807,40.8943563 33.3306633,39.7038231 33.8217408,38.5639936 C35.6714659,34.1184006 37.300637,30.5934943 38.8201054,27.937998 C43.2217104,28.5332646 47.4116638,29.1285312 51.4324684,29.6730941 L51.4324684,32.8688564 C50.4506006,35.4693521 49.4730405,38.0191442 48.5503318,40.5692227 C44.8554763,41.7640528 40.9954925,42.41432 36.9198366,42.41432 C35.887138,42.41432 34.8544394,42.41432 33.8217408,42.3003084 Z M20.9937058,38.7794125 C19.1991191,37.909716 17.459671,36.8836116 15.8302128,35.7437821 C15.6693921,35.6340674 15.5042637,35.5283632 15.343443,35.4189349 L15.8302128,33.7935535 C16.7020907,30.973342 17.6247994,28.0434158 18.4923696,25.1180729 L20.9937058,25.4936237 C25.4501621,26.0929007 29.6912335,26.6881673 33.8217408,27.2327303 L33.8217408,34.7686678 C33.2801197,36.9386121 32.5690624,39.3746791 31.8071744,42.0891864 C27.9514982,41.544337 24.3077608,40.4047939 20.9937058,38.7794125 Z M51.4324684,36.8836116 L51.4324684,39.4843938 C50.9413909,39.7542403 50.5603033,39.8642414 50.2897799,39.919242 L51.4324684,36.8836116 Z M51.4324684,36.8836116 L54.0394867,29.9432271 L56.2700123,30.2683607 L56.2700123,36.7191828 C54.4714051,37.8590123 52.6300082,38.9395444 51.4324684,39.4843938 L51.4324684,36.8836116 Z M56.2700123,30.2683607 L58.9873077,30.6482084 L58.9873077,34.8740855 C58.1151426,35.5283632 57.1924338,36.1239162 56.2700123,36.7191828 L56.2700123,30.2683607 Z M58.9873077,30.6482084 L63.3334869,31.2984755 C62.8426966,32.0034568 61.1075562,33.4134193 58.9873077,34.8740855 L58.9873077,30.6482084 Z M33.8217408,27.2327303 L35.2900912,27.4484356 C35.0155473,29.5083789 34.5244698,31.8937421 33.8217408,34.7686678 L33.8217408,27.2327303 Z M4.631636,23.163261 L15.8302128,24.7376523 L15.8302128,26.4730349 C15.0683247,28.9638159 14.255893,31.7333238 13.5448358,34.0086859 C10.831561,32.0581709 6.1551249,26.5827496 4.631636,23.163261 Z M51.4324684,29.6730941 L52.5708491,29.8335124 L51.4324684,32.8688564 L51.4324684,29.6730941 Z M58.9873077,29.1832453 L56.2700123,28.8033976 L54.6362463,28.5879787 L56.2700123,24.1973863 C57.1924338,21.9177272 58.0645989,19.5326504 58.9873077,17.2011419 L59.5286416,15.6811782 C62.7370145,15.7908929 66.8126704,16.3314454 71.8661735,17.2011419 C70.2915666,21.9724414 67.7353791,26.3083196 64.4764626,29.9982277 L58.9873077,29.1832453 Z M51.4324684,28.0981299 C47.7376129,27.5578638 43.8227777,27.0130144 39.7428141,26.4180343 C44.2584295,19.262231 47.301674,20.6721935 51.4324684,26.853169 C51.7584175,27.2834339 52.029228,27.7732827 52.3551771,28.2585482 L51.4324684,28.0981299 Z M51.4324684,22.4032792 C50.9413909,20.6171929 50.8865395,19.1568132 51.4324684,18.0674009 C52.0843665,16.8212942 53.6583991,16.0610259 56.2700123,15.7908929 L56.2700123,20.07263 C55.343283,22.5679944 54.4205743,25.0627859 53.442727,27.5578638 C52.5708491,25.6033384 51.8640996,23.8725392 51.4324684,22.4032792 Z M15.8302128,24.7376523 L16.3210031,24.847367 C16.1558747,25.3332054 15.9953411,25.8777683 15.8302128,26.4730349 L15.8302128,24.7376523 Z M33.8217408,25.5526347 C29.6912335,24.8983571 25.4501621,24.3073874 20.9937058,23.6531098 L20.2318177,23.5431087 C20.506936,23.3826904 20.773726,23.2729757 20.9937058,23.1122709 C27.4607079,19.9672122 31.6506614,18.5025356 33.8217408,19.6970792 C35.1803885,20.5077647 35.7220096,22.4622902 35.5063376,25.7677672 L33.8217408,25.5526347 Z M15.8302128,22.8421379 L3.54810657,20.9976135 C1.42326315,16.3861595 0.230031029,11.2358717 0.230031029,5.76016389 C0.230031029,3.86035252 0.394872241,2.01983865 0.665969983,0.179038315 C6.86187442,1.969135 11.860239,3.48451529 15.8302128,4.84005018 C17.7856201,5.49003088 19.5250682,6.14001158 20.9937058,6.73556463 L20.9937058,9.61020381 C19.6350581,14.1657979 18.2766976,18.6122503 16.9180499,22.9985457 L15.8302128,22.8421379 Z M20.9937058,17.0364266 L20.9937058,21.3771748 C20.506936,21.7023083 19.9610072,22.0274419 19.3642475,22.3525755 C19.9058686,20.6171929 20.4477769,18.8316796 20.9937058,17.0364266 Z M20.9937058,17.0364266 C21.9164145,14.0557968 22.8431438,11.0204528 23.8207038,7.9298218 C32.7339037,12.1055682 30.4488139,15.5207599 20.9937058,21.3771748 L20.9937058,17.0364266 Z M56.2700123,15.7908929 C56.8116334,15.7358923 57.3575622,15.6811782 57.9543219,15.6811782 C57.4086802,17.1461413 56.8664848,18.6122503 56.2700123,20.07263 L56.2700123,15.7908929 Z M20.9937058,6.73556463 C21.2136855,6.84499284 21.4847832,6.95499398 21.7555938,7.06470866 L20.9937058,9.61020381 L20.9937058,6.73556463 Z" id="path3466"></path>
                            </g>
                        </g>
                    </g>
                </g>
                <g id="g3468" transform="translate(1.227694, 5.275764)" fill="url(#linearGradient-5)">
                    <g id="g3470">
                        <g id="g3476">
                            <g id="g3478">
                                <path d="M69.281268,46.9441326 C68.51938,46.7287137 67.7620868,46.4585806 67.0550501,46.2434482 C64.9856324,45.5338836 63.1953535,44.8839029 61.6210337,44.2336357 C61.1299562,43.9635027 60.5880479,43.7480838 60.1478013,43.5286544 L61.6210337,39.682625 C62.8694044,36.4278516 64.117775,33.1220882 65.3664328,29.8166112 L67.0550501,30.4078674 L69.281268,31.1675627 L72.8150156,32.3623928 C72.9804312,33.8273559 73.0861133,35.2330215 73.0861133,36.6979847 C73.0861133,40.4933105 72.4893537,44.1786351 71.4566551,47.6491138 C70.6950542,47.3786944 69.9880175,47.1635619 69.281268,46.9441326 Z M61.6210337,31.4419927 L61.6210337,35.3977368 C60.6937301,37.8928148 59.71617,40.3833093 58.7934613,42.8279701 C52.3815976,39.2984804 54.2821536,36.2124327 61.6210337,31.4419927 Z M61.6210337,31.4419927 C62.2177934,31.062145 62.8694044,30.6817244 63.5761539,30.2471626 C62.9242557,31.9819722 62.268337,33.6623542 61.6210337,35.3977368 L61.6210337,31.4419927 Z M24.6601304,34.2576208 L26.128768,29.4361906 C27.2671488,25.9069874 28.3546987,22.3313774 29.4425358,18.7010533 C30.3103932,20.3811488 30.9620042,21.8968156 31.5627844,23.2517775 L31.5627844,33.227506 C30.4200959,33.9327737 28.6257964,34.2576208 26.128768,34.2576208 L24.6601304,34.2576208 Z M20.0382585,33.88207 C15.2558531,33.282793 8.84398948,32.142677 0.201600228,30.4078674 C1.50539657,22.8212262 5.19967767,16.0409736 10.4183092,10.7852681 C13.7320771,11.9758012 16.9404499,13.0606302 20.0382585,14.1454592 C22.1036557,14.9057275 24.1142016,15.6104223 26.128768,16.3154035 L26.128768,21.6811102 C24.8758025,25.9069874 23.6271446,30.0317437 22.378774,34.0974889 C21.616886,34.0424884 20.8001466,33.9327737 20.0382585,33.88207 Z M31.5627844,23.2517775 C33.7341509,28.4573523 34.0601,31.6571251 31.5627844,33.227506 L31.5627844,23.2517775 Z M52.8132289,32.142677 C50.8029702,31.6021245 50.0965079,29.381763 50.638129,24.7717412 L52.8132289,25.5314366 C55.8564734,26.5572545 58.7934613,27.5916663 61.6210337,28.567067 L61.6210337,29.7616107 C58.2897479,31.3319915 55.7039809,32.2695794 53.8628711,32.2695794 C53.4820707,32.2695794 53.1305626,32.2271831 52.8132289,32.142677 Z M69.281268,29.3227519 L67.0550501,28.5120664 L66.0226387,28.1322188 L67.0550501,25.4217219 L69.0653088,20.0560152 C69.1755858,20.161433 69.2264167,20.2711477 69.281268,20.3811488 C71.0207161,23.4162063 72.3288202,26.886685 72.5444922,30.5172956 L69.281268,29.3227519 Z M61.6210337,28.567067 L63.0850764,29.0566294 C62.5983066,29.3227519 62.1075163,29.5421813 61.6210337,29.7616107 L61.6210337,28.567067 Z M31.5627844,18.9158992 C31.4019637,18.5907657 31.1819839,18.3209191 31.0168556,17.9957855 L31.5627844,18.210918 C36.7814159,20.0010147 41.6697907,21.6811102 46.3462267,23.3064916 C44.2725013,26.6334532 42.4526428,28.1869329 40.6158408,28.1869329 C37.9370275,28.1869329 35.206809,24.8685651 31.5627844,18.9158992 Z M61.6210337,26.6119686 C58.7934613,25.6368543 55.8564734,24.6113229 52.8132289,23.5262075 L50.9129601,22.8212262 C51.28974,20.490577 51.9416382,17.6156514 52.8132289,14.1454592 C53.5202656,11.5406665 54.337005,8.61503724 55.3145651,5.3092738 C57.5959215,6.71522587 59.71617,8.29019012 61.6210337,10.1350009 C63.6861437,12.0852295 65.4804432,14.2511634 67.0550501,16.5815261 L67.0550501,21.0311295 C66.1831722,23.2517775 65.3664328,25.476436 64.553714,27.6466669 L61.6210337,26.6119686 Z M26.128768,16.3154035 L27.6482364,16.8009554 L26.128768,21.6811102 L26.128768,16.3154035 Z M31.5627844,15.9355558 L30.4752344,15.4964107 L31.5627844,11.9248111 C32.7563037,8.01977065 34.0092692,4.11473016 35.2027885,0.104271914 C35.5838761,0.104271914 35.9643894,0.0492713442 36.345477,0.0492713442 C42.2705708,0.0492713442 47.8656951,1.45923388 52.8132289,3.95001491 L52.8132289,9.75486676 C50.7481189,14.7954399 48.9535322,18.7010533 47.3792125,21.571682 C42.3765402,19.7812988 37.1625035,17.8860709 31.5627844,15.9355558 Z M67.0550501,16.5815261 C67.3809992,17.126089 67.7620868,17.670652 68.0877487,18.2656321 L67.0550501,21.0311295 L67.0550501,16.5815261 Z M26.128768,13.8203256 L20.0382585,11.6506677 L12.3780242,8.99488493 C13.6815334,7.31478938 16.6145008,5.36026391 20.0382585,3.6798819 C21.942835,2.75948174 24.0590631,1.88978522 26.128768,1.29881555 C28.0838881,0.699538503 29.9293056,0.319117892 31.5627844,0.264403783 L31.5627844,3.95001491 C30.530373,7.58463593 29.4425358,11.3252476 28.4649758,14.5805939 L26.128768,13.8203256 Z M52.8132289,3.95001491 C53.4651271,4.27915895 54.1167381,4.6592931 54.7689234,4.9798433 C54.0618867,6.71522587 53.4651271,8.29019012 52.8132289,9.75486676 L52.8132289,3.95001491 Z M31.5627844,0.264403783 L32.70576,0.264403783 C32.3206519,1.45923388 31.9395643,2.70877808 31.5627844,3.95001491 L31.5627844,0.264403783 Z" id="path3490"></path>
                            </g>
                        </g>
                    </g>
                </g>
                <g id="g3492" transform="translate(32.243113, 23.036364)" fill="url(#linearGradient-6)">
                    <g id="g3494">
                        <g id="g3500">
                            <g id="g3502">
                                <path d="M0.547364721,1.15529844 C0.386544026,0.830164857 0.166564291,0.560318309 0.00143589906,0.23518473 L0.547364721,0.450317169 C5.76599626,2.24041385 10.654371,3.9205094 15.3308071,5.54589083 C13.2570816,8.86855549 11.4372232,10.4263321 9.6004211,10.4263321 C6.92160782,10.4263321 4.19138935,7.10796432 0.547364721,1.15529844" id="path3512"></path>
                            </g>
                        </g>
                    </g>
                </g>
                <g id="g3514" transform="translate(25.637978, 23.895748)" fill="url(#linearGradient-7)">
                    <g id="g3516">
                        <g id="g3522">
                            <g id="g3524">
                                <path d="M0.249846436,15.7645384 L1.71848399,10.8800868 C2.85686477,7.35489396 3.94441471,3.71139265 5.03225184,0.0810685489 C5.90010923,1.76116409 6.55172022,3.27683085 7.15250039,4.63179281 C9.32386694,9.83736762 9.64981603,13.1004483 7.15250039,14.6754126 C6.00981192,15.3760969 4.21551246,15.7645384 1.71848399,15.7645384 L0.249846436,15.7645384 Z" id="path3534"></path>
                            </g>
                        </g>
                    </g>
                </g>
                <g id="g3536" transform="translate(52.058520, 10.432067)" fill="url(#linearGradient-8)">
                    <g id="g3538">
                        <g id="g3544">
                            <g id="g3546">
                                <path d="M10.7902071,21.4556652 C7.96263464,20.4805509 5.0256467,19.4550194 1.98240224,18.369904 L0.0821334261,17.6649227 C0.458913339,15.3342736 1.11081151,12.4593479 1.98240224,8.9891557 C2.68943894,6.38436307 3.50617832,3.45873378 4.4837384,0.152970336 C6.76509482,1.55892241 8.88534337,3.13388666 10.7902071,4.97869745 C12.8553171,6.92892601 14.6496166,9.09485992 16.2242235,11.4252226 C16.5501725,11.9697856 16.9312602,12.5143485 17.2569221,13.1093286 L16.2242235,15.874826 C15.3523456,18.0954741 14.5356062,20.3201326 13.7228873,22.4903634 L10.7902071,21.4556652 Z" id="path3556"></path>
                            </g>
                        </g>
                    </g>
                </g>
                <g id="g3558" transform="translate(66.991871, 25.328055)" fill="url(#linearGradient-9)">
                    <g id="g3560">
                        <g id="g3566">
                            <g id="g3568">
                                <path d="M3.51709115,9.2704607 L1.29087325,8.45977521 L0.25846183,8.07992752 L1.29087325,5.36943067 L3.30113193,0.00372399694 C3.41140898,0.109141757 3.46223981,0.218856436 3.51709115,0.328857576 C5.25653927,3.36391509 6.56464331,6.83439378 6.78031535,10.4650043 L3.51709115,9.2704607 Z" id="path3578"></path>
                            </g>
                        </g>
                    </g>
                </g>
                <g id="g3580" transform="translate(61.248274, 35.067739)" fill="url(#linearGradient-10)">
                    <g id="g3582">
                        <g id="g3588">
                            <g id="g3590">
                                <path d="M9.26068739,17.152157 C8.49879935,16.9367381 7.74150618,16.6666051 7.03446949,16.4514727 C4.96505176,15.741908 3.17477282,15.0919273 1.60045309,14.4416601 C1.10937561,14.1715271 0.567467308,13.9561082 0.127220657,13.7366789 L1.60045309,9.89064942 C2.84882373,6.63587609 4.09719437,3.33011265 5.34585219,0.0246356721 L7.03446949,0.615891802 L9.26068739,1.37558718 L12.794435,2.57041728 C12.9598505,4.03538038 13.0655327,5.441046 13.0655327,6.9060091 C13.0655327,10.7013349 12.4687731,14.3866596 11.4360745,17.8571383 C10.6744736,17.5867188 9.9674369,17.3715864 9.26068739,17.152157" id="path3600"></path>
                            </g>
                        </g>
                    </g>
                </g>
                <g id="g3602" transform="translate(31.668754, 5.275764)" fill="url(#linearGradient-11)">
                    <g id="g3604">
                        <g id="g3610">
                            <g id="g3612">
                                <path d="M1.12172434,15.9355558 L0.0341743976,15.4964107 L1.12172434,11.9248111 C2.31524364,8.01977065 3.56820916,4.11473016 4.76172846,0.104271914 C5.14281607,0.104271914 5.52332932,0.0492713442 5.90441693,0.0492713442 C11.8295108,0.0492713442 17.4246351,1.45923388 22.3721689,3.95001491 C23.024067,4.27915895 23.675678,4.6592931 24.3278634,4.9798433 C23.6208267,6.71522587 23.024067,8.29019012 22.3721689,9.75486676 C20.3070588,14.7954399 18.5124722,18.7010533 16.9381525,21.571682 C11.9354802,19.7812988 6.72144349,17.8860709 1.12172434,15.9355558" id="path3622"></path>
                            </g>
                        </g>
                    </g>
                </g>
                <g id="g3624" transform="translate(56.079038, 35.354200)" fill="url(#linearGradient-12)">
                    <g id="g3626">
                        <g id="g3632">
                            <g id="g3634">
                                <path d="M6.7696897,1.3635558 C7.36644935,0.983708116 8.01806034,0.603287505 8.72480986,0.168725708 C8.07291169,1.90353536 7.416993,3.58391737 6.7696897,5.31929994 C5.84238609,7.8143779 4.86482601,10.3048725 3.94211727,12.7495332 C-2.46974638,9.22004351 -0.569190387,6.13399589 6.7696897,1.3635558" id="path3644"></path>
                            </g>
                        </g>
                    </g>
                </g>
                <g id="g3646" transform="translate(1.227694, 15.874832)" fill="url(#linearGradient-13)">
                    <g id="g3648">
                        <g id="g3654">
                            <g id="g3656">
                                <path d="M20.0382585,23.2830018 C15.2558531,22.6837248 8.84398948,21.5436088 0.201600228,19.8087991 C1.50539657,12.222158 5.19967767,5.44190538 10.4183092,0.186199847 C13.7320771,1.37673302 16.9404499,2.46156198 20.0382585,3.54639094 C22.1036557,4.30665924 24.1142016,5.01135404 26.128768,5.71633531 L27.6482364,6.20188722 L26.128768,11.082042 C24.8758025,15.3079191 23.6271446,19.4326754 22.378774,23.4984207 C21.616886,23.4434201 20.8001466,23.3337055 20.0382585,23.2830018" id="path3666"></path>
                            </g>
                        </g>
                    </g>
                </g>
                <g id="g3668" transform="translate(51.484161, 29.911436)" fill="url(#linearGradient-14)">
                    <g id="g3670">
                        <g id="g3676">
                            <g id="g3678">
                                <path d="M2.55676186,7.50700492 C0.546503182,6.96645244 -0.159959155,4.74609087 0.38166197,0.136069119 L2.55676186,0.895764496 C5.60000633,1.92158242 8.53699426,2.95599419 11.3645667,3.93139493 L12.8286094,4.4209573 C12.3418396,4.68707985 11.8510493,4.9065092 11.3645667,5.12593856 C8.03328087,6.69631943 5.44751385,7.63390727 3.60640407,7.63390727 C3.22560364,7.63390727 2.87409555,7.591511 2.55676186,7.50700492" id="path3688"></path>
                            </g>
                        </g>
                    </g>
                </g>
                <g id="g3690" transform="translate(13.576426, 5.275764)" fill="url(#linearGradient-15)">
                    <g id="g3692">
                        <g id="g3698">
                            <g id="g3700">
                                <path d="M13.7800361,13.8203256 L7.68952664,11.6506677 L0.0292923408,8.99488493 C1.33280151,7.31478938 4.26576892,5.36026391 7.68952664,3.6798819 C9.59410315,2.75948174 11.7103312,1.78007054 13.7800361,1.18938733 C15.7351562,0.589250901 17.5805737,0.0452608859 19.2140525,0.0452608859 L20.3570281,0.0452608859 C19.97192,1.45064004 19.5908324,2.59505295 19.2140525,3.84459715 C18.1816411,7.47520771 17.0938039,11.3252476 16.1162438,14.5805939 L13.7800361,13.8203256 Z" id="path3710"></path>
                            </g>
                        </g>
                    </g>
                </g>
            </g>
        </g>
    </g>
</svg>